# xmcd
#
# Track frame offsets: 
#        150
#        10720
#        22707
#        31127
#        40632
#        49350
#        60975
#        74065
#        84495
#        95235
#        107765
#        118485
#
# Disc length: 1736 seconds
#
# Revision: 1
# Processed by: cddbd v1.4PL0 Copyright (c) Steve Scherf et al.
# Submitted via: ExactAudioCopy v0.90b3
#
DISCID=9906c60c
DTITLE=George Jones - Sings Bob Wills
DYEAR=1900
DGENRE=Country
TTITLE0=Bubbles In My Beer
TTITLE1=Faded Love
TTITLE2=Roly Poly
TTITLE3=Trouble In Mind
TTITLE4=Take Me Back To Tulsa
TTITLE5=The Warm Red Wine
TTITLE6=Time Changes Everything
TTITLE7=Worried Mind
TTITLE8=Silver Dew On The Bluegrass Tonight
TTITLE9=San Antonio Rose
TTITLE10=Steel Guitar Rag
TTITLE11=Big Beaver
EXTD=
EXTT0=
EXTT1=
EXTT2=
EXTT3=
EXTT4=
EXTT5=
EXTT6=
EXTT7=
EXTT8=
EXTT9=
EXTT10=
EXTT11=
PLAYORDER=
